<svg width="1200" height="630" viewBox="0 0 1200 630" fill="none" xmlns="http://www.w3.org/2000/svg">
  <rect width="1200" height="630" fill="#0f172a"/>
  <rect x="0" y="0" width="1200" height="4" fill="#3b82f6"/>
  <!-- Lucide Sparkles — scale 5, centred at (600, 240) -->
  <g transform="translate(540, 180) scale(5)"
     stroke="#ffffff" stroke-width="1.6" stroke-linecap="round" stroke-linejoin="round" fill="none" opacity="0.9">
    <path d="M9.937 15.5A2 2 0 0 0 8.5 14.063l-6.135-1.582a.5.5 0 0 1 0-.962L8.5 9.936A2 2 0 0 0 9.937 8.5l1.582-6.135a.5.5 0 0 1 .963 0L14.063 8.5A2 2 0 0 0 15.5 9.937l6.135 1.581a.5.5 0 0 1 0 .964L15.5 14.063a2 2 0 0 0-1.437 1.437l-1.582 6.135a.5.5 0 0 1-.963 0z"/>
    <path d="M20 3v4"/><path d="M22 5h-4"/>
    <path d="M4 17v2"/><path d="M5 18H3"/>
  </g>
  <text x="600" y="410"
    font-family="system-ui, -apple-system, sans-serif"
    font-size="120" font-weight="800" fill="#ffffff"
    text-anchor="middle" letter-spacing="-4">features</text>
  <line x1="380" y1="436" x2="820" y2="436" stroke="#3b82f6" stroke-width="1" stroke-opacity="0.4"/>
  <rect x="450" y="464" width="300" height="38" rx="19"
        fill="#3b82f6" fill-opacity="0.12" stroke="#3b82f6" stroke-opacity="0.4" stroke-width="1"/>
  <text x="600" y="488"
    font-family="system-ui, -apple-system, sans-serif"
    font-size="13" fill="#60a5fa" text-anchor="middle" letter-spacing="2">HANSMARTENS.DEV</text>
  <path d="M 36 60 L 36 36 L 60 36" stroke="#3b82f6" stroke-width="1.5" fill="none" stroke-opacity="0.5"/>
  <path d="M 1140 36 L 1164 36 L 1164 60" stroke="#3b82f6" stroke-width="1.5" fill="none" stroke-opacity="0.5"/>
  <path d="M 36 570 L 36 594 L 60 594" stroke="#3b82f6" stroke-width="1.5" fill="none" stroke-opacity="0.5"/>
  <path d="M 1140 594 L 1164 594 L 1164 570" stroke="#3b82f6" stroke-width="1.5" fill="none" stroke-opacity="0.5"/>
</svg>
