<svg width="1200" height="630" viewBox="0 0 1200 630" fill="none" xmlns="http://www.w3.org/2000/svg">
  <defs>
    <radialGradient id="glow" cx="600" cy="280" r="380" gradientUnits="userSpaceOnUse">
      <stop offset="0%"   stop-color="#10b981" stop-opacity="0.18"/>
      <stop offset="100%" stop-color="#10b981" stop-opacity="0"/>
    </radialGradient>
  </defs>

  <!-- Background -->
  <rect width="1200" height="630" fill="#0d1117"/>
  <rect width="1200" height="630" fill="url(#glow)"/>

  <!-- Top accent stripe -->
  <rect width="1200" height="5" fill="#10b981"/>

  <!-- Corner marks -->
  <path d="M 48 80 L 48 48 L 80 48"    stroke="#10b981" stroke-width="1.5" fill="none" stroke-opacity="0.5"/>
  <path d="M 1120 48 L 1152 48 L 1152 80"  stroke="#10b981" stroke-width="1.5" fill="none" stroke-opacity="0.5"/>
  <path d="M 48 550 L 48 582 L 80 582"  stroke="#10b981" stroke-width="1.5" fill="none" stroke-opacity="0.5"/>
  <path d="M 1120 582 L 1152 582 L 1152 550" stroke="#10b981" stroke-width="1.5" fill="none" stroke-opacity="0.5"/>

  <!-- Lucide Rocket icon — centred at (600, 210) -->
  <g transform="translate(492, 100) scale(9)"
     stroke="#10b981" stroke-width="1.4" stroke-linecap="round" stroke-linejoin="round" fill="none">
    <path d="M12 15v5s3.03-.55 4-2c1.08-1.62 0-5 0-5"/>
    <path d="M4.5 16.5c-1.5 1.26-2 5-2 5s3.74-.5 5-2c.71-.84.7-2.13-.09-2.91a2.18 2.18 0 0 0-2.91-.09"/>
    <path d="M9 12a22 22 0 0 1 2-3.95A12.88 12.88 0 0 1 22 2c0 2.72-.78 7.5-6 11a22.4 22.4 0 0 1-4 2z"/>
    <path d="M9 12H4s.55-3.03 2-4c1.62-1.08 5 .05 5 .05"/>
  </g>

  <!-- Wordmark -->
  <text x="600" y="435"
    text-anchor="middle"
    font-family="system-ui, -apple-system, 'Segoe UI', Helvetica, Arial, sans-serif"
    font-weight="800" font-size="90" letter-spacing="-2"
    fill="white">Astro <tspan fill="#10b981">Rocket</tspan></text>

  <!-- Subtitle -->
  <text x="600" y="493"
    text-anchor="middle"
    font-family="system-ui, -apple-system, 'Segoe UI', Helvetica, Arial, sans-serif"
    font-weight="400" font-size="26" letter-spacing="0.5"
    fill="#6b7280">Free &amp; open source · Astro 6 · Tailwind CSS v4</text>
</svg>
