<svg width="1200" height="630" viewBox="0 0 1200 630" fill="none" xmlns="http://www.w3.org/2000/svg">
  <rect width="1200" height="630" fill="#0f172a"/>
  <rect x="0" y="0" width="1200" height="4" fill="#3b82f6"/>
  <!-- Lucide Settings — scale 5, centred at (600, 240) -->
  <g transform="translate(540, 180) scale(5)"
     stroke="#ffffff" stroke-width="1.6" stroke-linecap="round" stroke-linejoin="round" fill="none" opacity="0.9">
    <path d="M12.22 2h-.44a2 2 0 0 0-2 2v.18a2 2 0 0 1-1 1.73l-.43.25a2 2 0 0 1-2 0l-.15-.08a2 2 0 0 0-2.73.73l-.22.38a2 2 0 0 0 .73 2.73l.15.1a2 2 0 0 1 1 1.72v.51a2 2 0 0 1-1 1.74l-.15.09a2 2 0 0 0-.73 2.73l.22.38a2 2 0 0 0 2.73.73l.15-.08a2 2 0 0 1 2 0l.43.25a2 2 0 0 1 1 1.73V20a2 2 0 0 0 2 2h.44a2 2 0 0 0 2-2v-.18a2 2 0 0 1 1-1.73l.43-.25a2 2 0 0 1 2 0l.15.08a2 2 0 0 0 2.73-.73l.22-.39a2 2 0 0 0-.73-2.73l-.15-.08a2 2 0 0 1-1-1.74v-.5a2 2 0 0 1 1-1.74l.15-.09a2 2 0 0 0 .73-2.73l-.22-.38a2 2 0 0 0-2.73-.73l-.15.08a2 2 0 0 1-2 0l-.43-.25a2 2 0 0 1-1-1.73V4a2 2 0 0 0-2-2z"/>
    <circle cx="12" cy="12" r="3"/>
  </g>
  <text x="600" y="410"
    font-family="system-ui, -apple-system, sans-serif"
    font-size="120" font-weight="800" fill="#ffffff"
    text-anchor="middle" letter-spacing="-4">config</text>
  <line x1="380" y1="436" x2="820" y2="436" stroke="#3b82f6" stroke-width="1" stroke-opacity="0.4"/>
  <rect x="450" y="464" width="300" height="38" rx="19"
        fill="#3b82f6" fill-opacity="0.12" stroke="#3b82f6" stroke-opacity="0.4" stroke-width="1"/>
  <text x="600" y="488"
    font-family="system-ui, -apple-system, sans-serif"
    font-size="13" fill="#60a5fa" text-anchor="middle" letter-spacing="2">HANSMARTENS.DEV</text>
  <path d="M 36 60 L 36 36 L 60 36" stroke="#3b82f6" stroke-width="1.5" fill="none" stroke-opacity="0.5"/>
  <path d="M 1140 36 L 1164 36 L 1164 60" stroke="#3b82f6" stroke-width="1.5" fill="none" stroke-opacity="0.5"/>
  <path d="M 36 570 L 36 594 L 60 594" stroke="#3b82f6" stroke-width="1.5" fill="none" stroke-opacity="0.5"/>
  <path d="M 1140 594 L 1164 594 L 1164 570" stroke="#3b82f6" stroke-width="1.5" fill="none" stroke-opacity="0.5"/>
</svg>
