<svg width="1200" height="630" viewBox="0 0 1200 630" fill="none" xmlns="http://www.w3.org/2000/svg">
  <style>
    .bi-bd { display: none }
    html.dark .bi-bl { display: none }
    html.dark .bi-bd { display: block }
    .bi-ic { stroke: #a5b4fc }
    .bi-tt { fill: #eef0ff }
    .bi-sl { stroke: rgba(99,102,241,.25) }
    .bi-bb { fill: rgba(99,102,241,.08); stroke: rgba(99,102,241,.3) }
    .bi-bt { fill: #818cf8 }
    .bi-cr { stroke: #4f46e5 }
  </style>
  <defs>
    <linearGradient id="args-bl" x1="0" y1="0" x2="1200" y2="630" gradientUnits="userSpaceOnUse">
      <stop offset="0%" stop-color="#060818"/>
      <stop offset="100%" stop-color="#0a1020"/>
    </linearGradient>
    <linearGradient id="args-bd" x1="0" y1="0" x2="1200" y2="630" gradientUnits="userSpaceOnUse">
      <stop offset="0%" stop-color="#060818"/>
      <stop offset="100%" stop-color="#0a1020"/>
    </linearGradient>
    <radialGradient id="args-glow" cx="50%" cy="38%" r="32%" gradientUnits="objectBoundingBox">
      <stop offset="0%" stop-color="#6366f1" stop-opacity="0.20"/>
      <stop offset="100%" stop-color="#6366f1" stop-opacity="0"/>
    </radialGradient>
    <radialGradient id="args-glow2" cx="80%" cy="75%" r="28%" gradientUnits="objectBoundingBox">
      <stop offset="0%" stop-color="#22d3ee" stop-opacity="0.08"/>
      <stop offset="100%" stop-color="#22d3ee" stop-opacity="0"/>
    </radialGradient>
  </defs>
  <rect width="1200" height="630" fill="url(#args-bl)" class="bi-bl"/>
  <rect width="1200" height="630" fill="url(#args-bd)" class="bi-bd"/>
  <rect width="1200" height="630" fill="url(#args-glow)"/>
  <rect width="1200" height="630" fill="url(#args-glow2)"/>
  <rect x="0" y="0" width="1200" height="4" fill="#6366f1"/>
  <!-- Lucide Rocket — scale 5, centred at (600, 240) -->
  <g transform="translate(540, 180) scale(5)"
     stroke="#312e81" stroke-width="1.85" stroke-linecap="round" stroke-linejoin="round" fill="none" class="bi-ic">
    <path d="M4.5 16.5c-1.5 1.26-2 5-2 5s3.74-.5 5-2c.71-.84.7-2.13-.09-2.91a2.18 2.18 0 0 0-2.91-.09z"/>
    <path d="m12 15-3-3a22 22 0 0 1 2-3.95A12.88 12.88 0 0 1 22 2c0 2.72-.78 7.5-6 11a22.35 22.35 0 0 1-4 2z"/>
    <path d="M9 12H4s.55-3.03 2-4c1.62-1.08 5 0 5 0"/>
    <path d="M12 15v5s3.03-.55 4-2c1.08-1.62 0-5 0-5"/>
  </g>
  <text x="600" y="410"
    font-family="'Outfit Variable', 'Outfit', -apple-system, BlinkMacSystemFont, 'Segoe UI', sans-serif"
    font-size="108" font-weight="800" fill="#eef0ff"
    text-anchor="middle" letter-spacing="-3" class="bi-tt">get started</text>
  <line x1="380" y1="436" x2="820" y2="436" stroke="rgba(99,102,241,0.5)" stroke-width="1" class="bi-sl"/>
  <rect x="450" y="468" width="300" height="38" rx="19"
        fill="rgba(99,102,241,0.12)" stroke="rgba(79,70,229,0.4)" stroke-width="1" class="bi-bb"/>
  <text x="600" y="492"
    font-family="'Outfit Variable', 'Outfit', -apple-system, BlinkMacSystemFont, 'Segoe UI', sans-serif"
    font-size="13" fill="#818cf8" text-anchor="middle" letter-spacing="1.5" class="bi-bt">ASTRO ROCKET THEME</text>
  <path d="M 36 60 L 36 36 L 60 36"          stroke-width="2" fill="none" class="bi-cr"/>
  <path d="M 1140 36 L 1164 36 L 1164 60"    stroke-width="2" fill="none" class="bi-cr"/>
  <path d="M 36 570 L 36 594 L 60 594"       stroke-width="2" fill="none" class="bi-cr"/>
  <path d="M 1140 594 L 1164 594 L 1164 570" stroke-width="2" fill="none" class="bi-cr"/>
</svg>
