<svg width="1200" height="630" viewBox="0 0 1200 630" fill="none" xmlns="http://www.w3.org/2000/svg">
  <defs>
    <linearGradient id="bg" x1="0" y1="0" x2="1200" y2="630" gradientUnits="userSpaceOnUse">
      <stop offset="0%" stop-color="#09091a"/>
      <stop offset="100%" stop-color="#09130f"/>
    </linearGradient>
    <radialGradient id="glowMain" cx="600" cy="310" r="420" gradientUnits="userSpaceOnUse">
      <stop offset="0%" stop-color="#10b981" stop-opacity="0.13"/>
      <stop offset="100%" stop-color="#10b981" stop-opacity="0"/>
    </radialGradient>
    <radialGradient id="glowIcon" cx="600" cy="230" r="210" gradientUnits="userSpaceOnUse">
      <stop offset="0%" stop-color="#34d399" stop-opacity="0.20"/>
      <stop offset="100%" stop-color="#34d399" stop-opacity="0"/>
    </radialGradient>
    <linearGradient id="textGrad" x1="200" y1="0" x2="1000" y2="0" gradientUnits="userSpaceOnUse">
      <stop offset="0%"   stop-color="#a7f3d0"/>
      <stop offset="45%"  stop-color="#ffffff"/>
      <stop offset="100%" stop-color="#6ee7b7"/>
    </linearGradient>
    <linearGradient id="lineGrad" x1="380" y1="0" x2="820" y2="0" gradientUnits="userSpaceOnUse">
      <stop offset="0%"   stop-color="#10b981" stop-opacity="0"/>
      <stop offset="30%"  stop-color="#34d399" stop-opacity="0.38"/>
      <stop offset="70%"  stop-color="#34d399" stop-opacity="0.38"/>
      <stop offset="100%" stop-color="#10b981" stop-opacity="0"/>
    </linearGradient>
    <pattern id="dots" x="0" y="0" width="38" height="38" patternUnits="userSpaceOnUse">
      <circle cx="19" cy="19" r="0.78" fill="#ffffff" fill-opacity="0.042"/>
    </pattern>
  </defs>

  <rect width="1200" height="630" fill="url(#bg)"/>
  <rect width="1200" height="630" fill="url(#dots)"/>
  <rect width="1200" height="630" fill="url(#glowMain)"/>
  <ellipse cx="600" cy="230" rx="210" ry="185" fill="url(#glowIcon)"/>

  <!-- Stars -->
  <circle cx="88"   cy="50"  r="1.2" fill="#ffffff" opacity="0.50"/>
  <circle cx="198"  cy="30"  r="0.8" fill="#ffffff" opacity="0.40"/>
  <circle cx="355"  cy="66"  r="0.9" fill="#ffffff" opacity="0.45"/>
  <circle cx="478"  cy="36"  r="0.7" fill="#ffffff" opacity="0.35"/>
  <circle cx="55"   cy="188" r="1.0" fill="#ffffff" opacity="0.28"/>
  <circle cx="65"   cy="400" r="0.9" fill="#ffffff" opacity="0.20"/>
  <circle cx="148"  cy="455" r="0.8" fill="#ffffff" opacity="0.18"/>
  <circle cx="820"  cy="46"  r="1.0" fill="#ffffff" opacity="0.50"/>
  <circle cx="932"  cy="26"  r="0.8" fill="#ffffff" opacity="0.40"/>
  <circle cx="1062" cy="58"  r="1.3" fill="#ffffff" opacity="0.36"/>
  <circle cx="1140" cy="126" r="0.9" fill="#ffffff" opacity="0.30"/>
  <circle cx="1158" cy="232" r="0.7" fill="#ffffff" opacity="0.24"/>
  <circle cx="1145" cy="420" r="0.8" fill="#ffffff" opacity="0.20"/>
  <circle cx="305"  cy="86"  r="1.7" fill="#ffffff" opacity="0.60"/>
  <circle cx="884"  cy="66"  r="1.6" fill="#ffffff" opacity="0.55"/>
  <circle cx="592"  cy="28"  r="1.3" fill="#ffffff" opacity="0.45"/>
  <circle cx="44"   cy="300" r="1.5" fill="#ffffff" opacity="0.35"/>
  <circle cx="1164" cy="322" r="1.4" fill="#ffffff" opacity="0.30"/>
  <circle cx="225"  cy="520" r="2.2" fill="#34d399" opacity="0.45"/>
  <circle cx="975"  cy="520" r="2.2" fill="#34d399" opacity="0.40"/>

  <!-- Lightning bolt / zap icon — scale 10, centre at canvas (600, 230) -->
  <!-- Path spans x:3–21, y:2–22 in 24×24 space; bounding centre ≈ (12,12) -->
  <g transform="translate(480, 110) scale(10)" fill="#a7f3d0" stroke="none">
    <path d="M13 2 3 14h9l-1 8 10-12h-9l1-8z"/>
  </g>

  <text
    x="600" y="490"
    font-family="'Outfit Variable', 'Outfit', -apple-system, BlinkMacSystemFont, 'Segoe UI', sans-serif"
    font-size="120" font-weight="800"
    fill="url(#textGrad)"
    text-anchor="middle"
    letter-spacing="-3"
  >get started</text>

  <line x1="380" y1="516" x2="820" y2="516" stroke="url(#lineGrad)" stroke-width="1"/>

  <rect x="450" y="548" width="300" height="38" rx="19"
    fill="#10b981" fill-opacity="0.08" stroke="#34d399" stroke-opacity="0.30" stroke-width="1"/>
  <text
    x="600" y="572"
    font-family="'Outfit Variable', 'Outfit', -apple-system, BlinkMacSystemFont, 'Segoe UI', sans-serif"
    font-size="13" fill="#6ee7b7" text-anchor="middle" letter-spacing="1.5"
  >Astro Rocket Theme</text>
</svg>
