<svg width="1200" height="630" viewBox="0 0 1200 630" fill="none" xmlns="http://www.w3.org/2000/svg">
  <style>
    .bi-bd { display: none }
    html.dark .bi-bl { display: none }
    html.dark .bi-bd { display: block }
    .bi-ic { stroke: #6ee7b7 }
    .bi-tt { fill: #ecfdf5 }
    .bi-sl { stroke: rgba(110,231,183,.25) }
    .bi-bb { fill: rgba(110,231,183,.08); stroke: rgba(110,231,183,.3) }
    .bi-bt { fill: #6ee7b7 }
    .bi-cr { stroke: #10b981 }
  </style>
  <defs>
    <linearGradient id="hte-bl" x1="0" y1="0" x2="1200" y2="630" gradientUnits="userSpaceOnUse">
      <stop offset="0%" stop-color="#051a12"/>
      <stop offset="100%" stop-color="#0e2419"/>
    </linearGradient>
    <linearGradient id="hte-bd" x1="0" y1="0" x2="1200" y2="630" gradientUnits="userSpaceOnUse">
      <stop offset="0%" stop-color="#051a12"/>
      <stop offset="100%" stop-color="#0e2419"/>
    </linearGradient>
    <radialGradient id="hte-glow" cx="50%" cy="38%" r="32%" gradientUnits="objectBoundingBox">
      <stop offset="0%" stop-color="#10b981" stop-opacity="0.18"/>
      <stop offset="100%" stop-color="#10b981" stop-opacity="0"/>
    </radialGradient>
  </defs>
  <rect width="1200" height="630" fill="url(#hte-bl)" class="bi-bl"/>
  <rect width="1200" height="630" fill="url(#hte-bd)" class="bi-bd"/>
  <rect width="1200" height="630" fill="url(#hte-glow)"/>
  <rect x="0" y="0" width="1200" height="4" fill="#10b981"/>
  <!-- Lucide Terminal — scale 5, centred at (600, 240) -->
  <g transform="translate(540, 180) scale(5)"
     stroke="#065f46" stroke-width="1.85" stroke-linecap="round" stroke-linejoin="round" fill="none" class="bi-ic">
    <polyline points="4 17 10 11 4 5"/>
    <line x1="12" x2="20" y1="19" y2="19"/>
  </g>
  <text x="600" y="410"
    font-family="'Outfit Variable', 'Outfit', -apple-system, BlinkMacSystemFont, 'Segoe UI', sans-serif"
    font-size="96" font-weight="800" fill="#ecfdf5"
    text-anchor="middle" letter-spacing="-2" class="bi-tt">typing effect</text>
  <line x1="380" y1="436" x2="820" y2="436" stroke="rgba(110,231,183,0.5)" stroke-width="1" class="bi-sl"/>
  <rect x="450" y="468" width="300" height="38" rx="19"
        fill="rgba(110,231,183,0.12)" stroke="rgba(16,185,129,0.4)" stroke-width="1" class="bi-bb"/>
  <text x="600" y="492"
    font-family="'Outfit Variable', 'Outfit', -apple-system, BlinkMacSystemFont, 'Segoe UI', sans-serif"
    font-size="13" fill="#6ee7b7" text-anchor="middle" letter-spacing="1.5" class="bi-bt">ASTRO ROCKET THEME</text>
  <path d="M 36 60 L 36 36 L 60 36"          stroke-width="2" fill="none" class="bi-cr"/>
  <path d="M 1140 36 L 1164 36 L 1164 60"    stroke-width="2" fill="none" class="bi-cr"/>
  <path d="M 36 570 L 36 594 L 60 594"       stroke-width="2" fill="none" class="bi-cr"/>
  <path d="M 1140 594 L 1164 594 L 1164 570" stroke-width="2" fill="none" class="bi-cr"/>
</svg>
